<?xml version="1.0" encoding="utf-8"?>
<!-- Generator: Adobe Illustrator 23.0.1, SVG Export Plug-In . SVG Version: 6.00 Build 0)  -->
<svg version="1.1" id="Layer_1" xmlns="http://www.w3.org/2000/svg" xmlns:xlink="http://www.w3.org/1999/xlink" x="0px" y="0px"
	 viewBox="0 0 200 100" style="enable-background:new 0 0 200 100;" xml:space="preserve">
<style type="text/css">
	.st0{fill:#0000FF;}
	.st1{fill:#FF0000;}
	.st2{font-family:'MADETOMMY-Medium';}
	.st3{font-size:5.4094px;}
</style>
<path class="st0" d="M63.27,49.88c0,2.59-2.21,4.82-5.84,4.82c-2.7,0-5.65-1.02-6.26-3.99l3.76-1.17c0.08,0.76,0.93,1.49,2.31,1.49
	c1.15,0,1.66-0.51,1.66-1.08c0-0.89-1.12-0.98-2.61-1.34c-2.87-0.68-4.52-1.87-4.52-4.56c0-2.84,2.38-4.73,5.65-4.73
	c2.61,0,4.9,1.34,5.46,3.91l-3.74,0.91c-0.17-0.59-0.68-1.15-1.68-1.15c-0.85,0-1.49,0.36-1.49,1.04c0,0.85,1.29,0.98,2.44,1.29
	C62.04,46.31,63.27,47.52,63.27,49.88z"/>
<path class="st0" d="M75.77,49.05c0,3.29-2.42,5.65-5.77,5.65c-3.35,0-5.77-2.36-5.77-5.65s2.42-5.65,5.77-5.65
	C73.35,43.41,75.77,45.76,75.77,49.05z M71.91,49.05c0-1.19-0.81-1.93-1.91-1.93c-1.1,0-1.93,0.74-1.93,1.93
	c0,1.19,0.83,1.91,1.93,1.91C71.1,50.96,71.91,50.24,71.91,49.05z"/>
<path class="st0" d="M81.57,43.66h2.12v3.23h-2.12v7.54h-3.82v-7.54h-1.34v-3.23h1.34c0-2,0.57-4.78,4.27-4.78
	c0.72,0,1.27,0.11,1.68,0.17v3.12c-0.15-0.02-0.38-0.04-0.64-0.04C81.95,42.13,81.57,42.79,81.57,43.66z"/>
<path class="st1" d="M104.74,43.66v14.86h-3.84v-4.97c-0.59,0.7-1.49,1.15-2.8,1.15c-3.35,0-5.01-2.82-5.01-5.65
	s1.66-5.65,5.01-5.65c1.32,0,2.21,0.45,2.8,1.12v-0.87H104.74z M100.8,49.05c0-1.15-0.79-1.93-1.93-1.93
	c-1.19,0-1.91,0.81-1.91,1.93c0,1.1,0.72,1.91,1.91,1.91C100.01,50.96,100.8,50.2,100.8,49.05z"/>
<path class="st1" d="M117.59,43.66v10.76h-3.82v-1.15c-0.55,0.79-1.46,1.42-2.95,1.42c-3.35,0-3.95-2.72-3.95-4.29v-6.75h3.82v5.82
	c0,0.83,0.59,1.46,1.55,1.46c0.93,0,1.53-0.64,1.53-1.46v-5.82H117.59z"/>
<path class="st1" d="M130.26,50.09l-7.45,0.02c0.3,1.02,1.1,1.61,2.36,1.61c0.96,0,1.66-0.49,2-0.89l2.57,1.53
	c-0.76,1.34-2.46,2.33-4.56,2.33c-3.63,0-6.09-2.27-6.09-5.62c0-3.16,2.4-5.67,5.69-5.67C127.94,43.41,130.75,45.74,130.26,50.09z
	 M126.76,48.01c-0.21-1-0.87-1.63-2-1.63c-0.98,0-1.68,0.66-1.95,1.66L126.76,48.01z"/>
<path class="st1" d="M140.91,51.09c0,2.27-1.87,3.61-5.03,3.61c-2.17,0-4.37-0.66-4.82-2.55l3.35-1.04c0.11,0.4,0.47,0.89,1.42,0.89
	c0.72,0,1.1-0.32,1.1-0.76c0-0.66-0.91-0.7-2.17-0.98c-2.08-0.47-3.37-1.21-3.37-3.31c0-2.25,2.1-3.54,4.8-3.54
	c1.85,0,3.78,0.89,4.25,2.72l-3.06,0.74c-0.15-0.49-0.53-0.81-1.17-0.81c-0.68,0-1.12,0.28-1.12,0.79c0,0.66,0.98,0.74,1.83,0.91
	C139.64,48.33,140.91,49.12,140.91,51.09z"/>
<polygon class="st1" points="148.83,46.89 148.83,43.66 146.71,43.66 146.71,41.41 142.89,41.41 142.82,54.55 146.16,54.55 
	146.72,54.55 146.72,50 146.72,47.02 146.71,47.02 146.71,46.89 "/>
<polygon class="st0" points="91.94,46.76 91.94,43.53 89.82,43.53 89.82,41.28 86,41.28 85.93,54.42 89.27,54.42 89.84,54.42 
	89.84,49.87 89.84,46.89 89.82,46.89 89.82,46.76 "/>
<text transform="matrix(1 0 0 1 106.838 59.7468)" class="st1 st2 st3">Systems Limited</text>
</svg>
